<svg xmlns="http://www.w3.org/2000/svg" viewBox="0 0 512 512">
  <defs>
    <linearGradient id="bg" x1="0" y1="0" x2="0" y2="1">
      <stop offset="0" stop-color="#0e4f4c"/><stop offset=".55" stop-color="#0b2c58"/><stop offset="1" stop-color="#0a1233"/>
    </linearGradient>
    <g id="gem">
      <rect width="150" height="150" rx="26" fill="currentColor"/>
      <path d="M0 0h150l-32 32H32z" fill="#fff" opacity=".55"/>
      <path d="M0 0l32 32v86L0 150z" fill="#fff" opacity=".22"/>
      <path d="M150 0v150l-32-32V32z" fill="#000" opacity=".2"/>
      <path d="M0 150l32-32h86l32 32z" fill="#000" opacity=".42"/>
      <path d="M38 22q6 12 18 16-12 4-16 18-4-14-18-18 12-4 16-16z" fill="#fff"/>
    </g>
  </defs>
  <rect width="512" height="512" rx="112" fill="url(#bg)"/>
  <use href="#gem" x="98" y="98" color="#ff3b4e"/>
  <use href="#gem" x="264" y="98" color="#ffd92e"/>
  <use href="#gem" x="98" y="264" color="#27c7ff"/>
  <use href="#gem" x="264" y="264" color="#3ddc5a"/>
</svg>
